<svg xmlns="http://www.w3.org/2000/svg" viewBox="0 0 32 32" role="img" aria-label="Mismo">
  <path fill="#1f3f68" d="M29.00 25.13L24.51 25.13L24.51 14.60Q24.51 12.83 23.67 11.85Q22.84 10.86 21.37 10.86L21.37 10.86Q20.43 10.86 19.73 11.30Q19.04 11.74 18.65 12.52Q18.26 13.31 18.26 14.33L18.26 14.33L16.38 13.08Q16.38 11.24 17.25 9.84Q18.11 8.43 19.58 7.65Q21.04 6.87 22.82 6.87L22.82 6.87Q25.88 6.87 27.44 8.67Q29.00 10.48 29.00 13.41L29.00 13.41L29.00 25.13M7.53 25.13L3.00 25.13L3.00 7.29L6.96 7.29L6.96 13.21L7.53 13.21L7.53 25.13M18.26 25.13L13.77 25.13L13.77 14.60Q13.77 12.83 12.94 11.85Q12.10 10.86 10.63 10.86L10.63 10.86Q9.23 10.86 8.38 11.83Q7.53 12.80 7.53 14.33L7.53 14.33L5.64 13.01Q5.64 11.26 6.52 9.87Q7.39 8.48 8.87 7.67Q10.35 6.87 12.18 6.87L12.18 6.87Q14.28 6.87 15.63 7.76Q16.97 8.65 17.62 10.14Q18.26 11.62 18.26 13.41L18.26 13.41L18.26 25.13"/>
</svg>
